<svg xmlns="http://www.w3.org/2000/svg" width="32" height="67" fill="none" viewBox="0 0 32 67">
  <mask id="b" fill="#fff">
    <path fill-rule="evenodd" d="M8.092 1.885a10 10 0 0 0-2.34 1.455L3.816 4.954a10 10 0 0 0-3.51 6.36l-.218 1.633a10 10 0 0 0 .264 3.952l.708 2.595c.173.636.409 1.252.703 1.841l1.489 2.977a1 1 0 0 0 1.54.316l4.956-4.194a.605.605 0 0 0-.022-.942c-3.045-2.342-3.165-6.891-.248-9.391l.619-.531a6.714 6.714 0 0 1 1.591-1.015l.897-.407a8.602 8.602 0 0 1 11.028 3.563l.197.344a7.468 7.468 0 0 1-.08 7.547l-.575.956a9.997 9.997 0 0 1-2.067 2.448L8.518 33.78a8.868 8.868 0 0 0-3.008 7.988l.012.084a8.527 8.527 0 0 0 8.973 7.304L17.008 49a1 1 0 0 0 .928-.856l.304-2.133a2 2 0 0 1 .444-.997l.77-.924a1 1 0 0 0-.768-1.64H15.32a1.95 1.95 0 0 1-1.782-2.742l.566-1.274c.143-.32.343-.611.59-.86l3.626-3.624 4.5-4 2.5-2 1.786-1.532a10 10 0 0 0 2.63-3.53l1.084-2.438.615-2.154c.255-.893.385-1.818.385-2.747v-2.1l-.252-2.015a10.001 10.001 0 0 0-1.24-3.72l-.344-.602a10 10 0 0 0-1.611-2.11l-1.24-1.24a10 10 0 0 0-3.01-2.066L22.83 1.12A10 10 0 0 0 19.675.3L16.826.041a10 10 0 0 0-2.01.02l-1.955.217a10 10 0 0 0-2.957.801l-1.812.806Zm7.229 65.065a6.5 6.5 0 1 0 0-13 6.5 6.5 0 0 0 0 13Z" clip-rule="evenodd"/>
  </mask>
  <path fill="url(#a)" fill-rule="evenodd" d="M8.092 1.885a10 10 0 0 0-2.34 1.455L3.816 4.954a10 10 0 0 0-3.51 6.36l-.218 1.633a10 10 0 0 0 .264 3.952l.708 2.595c.173.636.409 1.252.703 1.841l1.489 2.977a1 1 0 0 0 1.54.316l4.956-4.194a.605.605 0 0 0-.022-.942c-3.045-2.342-3.165-6.891-.248-9.391l.619-.531a6.714 6.714 0 0 1 1.591-1.015l.897-.407a8.602 8.602 0 0 1 11.028 3.563l.197.344a7.468 7.468 0 0 1-.08 7.547l-.575.956a9.997 9.997 0 0 1-2.067 2.448L8.518 33.78a8.868 8.868 0 0 0-3.008 7.988l.012.084a8.527 8.527 0 0 0 8.973 7.304L17.008 49a1 1 0 0 0 .928-.856l.304-2.133a2 2 0 0 1 .444-.997l.77-.924a1 1 0 0 0-.768-1.64H15.32a1.95 1.95 0 0 1-1.782-2.742l.566-1.274c.143-.32.343-.611.59-.86l3.626-3.624 4.5-4 2.5-2 1.786-1.532a10 10 0 0 0 2.63-3.53l1.084-2.438.615-2.154c.255-.893.385-1.818.385-2.747v-2.1l-.252-2.015a10.001 10.001 0 0 0-1.24-3.72l-.344-.602a10 10 0 0 0-1.611-2.11l-1.24-1.24a10 10 0 0 0-3.01-2.066L22.83 1.12A10 10 0 0 0 19.675.3L16.826.041a10 10 0 0 0-2.01.02l-1.955.217a10 10 0 0 0-2.957.801l-1.812.806Zm7.229 65.065a6.5 6.5 0 1 0 0-13 6.5 6.5 0 0 0 0 13Z" clip-rule="evenodd"/>
  <path fill="#2B6192" d="m5.752 3.34-1.28-1.536 1.28 1.536Zm2.34-1.455.812 1.827-.812-1.827ZM3.816 4.954l1.28 1.536-1.28-1.536Zm-3.51 6.36-1.983-.264 1.982.264Zm-.218 1.633-1.983-.265 1.983.264Zm.264 3.952-1.93.526 1.93-.526Zm.708 2.595 1.93-.526-1.93.526Zm.703 1.841 1.79-.894-1.79.894Zm1.489 2.977 1.788-.895-1.788.895Zm1.54.316 1.292 1.526-1.292-1.526Zm4.956-4.194 1.292 1.527-1.292-1.527Zm-.022-.942-1.22 1.586 1.22-1.586Zm-.248-9.391L8.176 8.582l1.302 1.519Zm.619-.531 1.302 1.518-1.302-1.518Zm1.591-1.015-.827-1.82.827 1.82Zm.897-.407.827 1.82-.827-1.82Zm11.028 3.563-1.737.992 1.737-.992Zm.197.344 1.736-.992-1.736.992Zm.76 1.894 1.94-.485-1.94.485Zm-.84 5.653 1.714 1.029-1.715-1.03Zm-.575.956-1.714-1.029 1.715 1.03Zm-2.067 2.448-1.301-1.519 1.302 1.519ZM8.518 33.78l1.301 1.52-1.302-1.52Zm-3.009 7.99 1.98-.283-1.98.283Zm.012.084-1.98.283 1.98-.283Zm1.545 3.81L5.45 46.839l1.617-1.176Zm7.428 3.495.125 1.996-.125-1.997ZM17.008 49l-.125-1.996.125 1.996Zm.928-.856 1.98.283-1.98-.283Zm.304-2.133-1.98-.283 1.98.283Zm.444-.997-1.537-1.28 1.537 1.28Zm.77-.924-1.537-1.28 1.537 1.28Zm-5.915-4.382-1.828-.812 1.828.812Zm.566-1.274 1.828.812-1.828-.812Zm.59-.86-1.414-1.413 1.415 1.414Zm3.626-3.624-1.33-1.495-.043.039-.042.041 1.415 1.415Zm4.5-4-1.25-1.562-.04.032-.04.035 1.33 1.495Zm2.5-2 1.249 1.561.026-.02.026-.023-1.301-1.518Zm1.786-1.532L25.805 24.9l1.302 1.518Zm2.63-3.53 1.828.811-1.828-.812Zm1.084-2.438 1.827.812.057-.128.039-.135-1.923-.55Zm.615-2.154-1.923-.55 1.923.55Zm.385-4.846h2v-.125l-.016-.123-1.984.248Zm-.252-2.016-1.985.248 1.985-.248Zm-1.24-3.72 1.736-.993-1.737.992Zm-.344-.602-1.736.993 1.736-.993Zm-1.611-2.11-1.415 1.415 1.415-1.414Zm-4.25-3.306-.812 1.827.812-1.827ZM22.83 1.12l.812-1.828-.812 1.828ZM19.675.3l.18-1.992L19.676.3ZM16.826.041l.182-1.992-.181 1.992Zm-2.01.02-.22-1.988.22 1.988Zm-1.955.217.221 1.988-.22-1.988Zm-2.957.801.812 1.828-.812-1.828ZM7.032 4.877a8 8 0 0 1 1.872-1.165L7.28.057a12 12 0 0 0-2.81 1.747l2.561 3.073ZM5.096 6.49l1.936-1.613-2.56-3.073-1.937 1.613L5.096 6.49Zm-2.808 5.09a8 8 0 0 1 2.808-5.09l-2.56-3.073a12 12 0 0 0-4.213 7.633l3.965.529Zm-.218 1.63.218-1.632-3.965-.53-.218 1.633 3.965.529Zm.212 3.162a8 8 0 0 1-.212-3.162l-3.965-.529a12 12 0 0 0 .318 4.743l3.859-1.052Zm.708 2.595-.708-2.595-3.86 1.052.709 2.596 3.859-1.053Zm.562 1.473a8.001 8.001 0 0 1-.562-1.473L-.87 20.02c.208.762.491 1.502.845 2.209l3.577-1.79Zm1.488 2.976L3.552 20.44l-3.577 1.789 1.488 2.976 3.577-1.789ZM3.5 23.1a1 1 0 0 1 1.54.316l-3.577 1.789a3 3 0 0 0 4.62.948L3.5 23.101Zm4.956-4.194L3.5 23.101l2.584 3.053 4.956-4.193-2.584-3.054Zm.05 2.17a1.395 1.395 0 0 1-.05-2.17l2.584 3.054a2.605 2.605 0 0 0-.094-4.054l-2.44 3.17Zm-.33-12.495c-3.88 3.326-3.72 9.38.33 12.496l2.44-3.17a4.052 4.052 0 0 1-.167-6.289L8.176 8.582Zm.62-.53-.62.53 2.603 3.037.62-.53L8.795 8.05Zm2.065-1.317A8.714 8.714 0 0 0 8.795 8.05l2.604 3.037a4.714 4.714 0 0 1 1.117-.712l-1.656-3.64Zm.896-.408-.896.408 1.655 3.641.896-.407-1.655-3.642Zm9.129.169a10.602 10.602 0 0 0-9.129-.169l1.655 3.642a6.602 6.602 0 0 1 5.685.105l1.789-3.578Zm4.463 4.223a10.602 10.602 0 0 0-4.463-4.223l-1.79 3.578a6.602 6.602 0 0 1 2.78 2.63l3.473-1.985Zm.197.344-.197-.344-3.473 1.984.197.345 3.473-1.985Zm.965 2.4a9.47 9.47 0 0 0-.965-2.4l-3.473 1.984c.248.435.436.901.557 1.387l3.88-.97Zm-1.067 7.168a9.468 9.468 0 0 0 1.067-7.167l-3.88.97a5.467 5.467 0 0 1-.617 4.139l3.43 2.058Zm-.573.956.573-.956-3.43-2.058-.573.956 3.43 2.058Zm-2.48 2.937a12 12 0 0 0 2.48-2.937l-3.43-2.058a8.006 8.006 0 0 1-1.654 1.958l2.603 3.037ZM9.818 35.3 22.39 24.524l-2.603-3.037L7.215 32.263 9.82 35.3Zm-2.33 6.186a6.868 6.868 0 0 1 2.33-6.186l-2.604-3.037a10.869 10.869 0 0 0-3.686 9.789l3.96-.566Zm.012.084-.012-.084-3.96.566.012.084 3.96-.566Zm1.183 2.916A6.527 6.527 0 0 1 7.5 41.57l-3.96.566a10.53 10.53 0 0 0 1.908 4.703l3.235-2.353Zm5.686 2.675a6.527 6.527 0 0 1-5.686-2.675L5.449 46.84a10.527 10.527 0 0 0 9.17 4.315l-.25-3.993Zm2.513-.157-2.513.157.25 3.993 2.513-.158-.25-3.992Zm-.927.857a1 1 0 0 1 .927-.857l.25 3.992a3 3 0 0 0 2.783-2.57l-3.96-.565Zm.305-2.133-.305 2.133 3.96.566.304-2.133-3.96-.566Zm.886-1.995a4 4 0 0 0-.886 1.995l3.96.566-3.074-2.56Zm.77-.924-.77.924 3.073 2.561.77-.924-3.073-2.56Zm.769 1.64a1 1 0 0 1-.769-1.64l3.073 2.561c1.629-1.954.24-4.92-2.304-4.92v4Zm-3.365 0h3.365v-4H15.32v4Zm-3.61-5.553c-1.16 2.612.752 5.554 3.61 5.554v-4l.006.001a.085.085 0 0 1 .02.008.044.044 0 0 1 .016.014s.004.006.005.02v.021c-.001.008-.003.01-.001.006l-3.656-1.624Zm.567-1.274-.567 1.274 3.656 1.624.566-1.274-3.655-1.624Zm1.003-1.462a4.853 4.853 0 0 0-1.003 1.462l3.655 1.624a.857.857 0 0 1 .177-.257L13.28 36.16Zm3.625-3.625-3.625 3.626 2.829 2.828 3.625-3.625-2.829-2.829Zm4.586-4.08-4.5 4 2.657 2.99 4.5-4-2.657-2.99Zm2.58-2.067-2.5 2 2.498 3.123 2.5-2-2.499-3.123Zm1.733-1.488-1.784 1.53 2.603 3.037 1.787-1.531-2.604-3.037Zm2.105-2.825a8.001 8.001 0 0 1-2.105 2.825l2.604 3.037a12 12 0 0 0 3.156-4.238l-3.655-1.624Zm1.083-2.438-1.083 2.438 3.655 1.625 1.083-2.438-3.655-1.625Zm.52-1.89-.615 2.153 3.846 1.1.615-2.154-3.846-1.1Zm.308-2.198a8 8 0 0 1-.308 2.198l3.846 1.099a12 12 0 0 0 .462-3.297h-4Zm0-2.1v2.1h4v-2.1h-4Zm-.237-1.767.252 2.016 3.97-.496-.253-2.016-3.969.496Zm-.992-2.977a8 8 0 0 1 .992 2.977l3.97-.496a11.999 11.999 0 0 0-1.49-4.465l-3.472 1.984Zm-.343-.6.343.6 3.473-1.984-.343-.6-3.473 1.984Zm-1.29-1.688a8 8 0 0 1 1.29 1.688l3.473-1.985a11.997 11.997 0 0 0-1.934-2.532l-2.829 2.829Zm-1.24-1.24 1.24 1.24 2.829-2.829-1.24-1.24-2.829 2.829Zm-2.407-1.654a8 8 0 0 1 2.407 1.654l2.829-2.829a12 12 0 0 0-3.612-2.48l-1.624 3.655Zm-1.294-.575 1.294.575 1.624-3.655-1.293-.575-1.625 3.655Zm-2.524-.656a8 8 0 0 1 2.524.656l1.625-3.655a12 12 0 0 0-3.787-.985l-.362 3.984Zm-2.849-.26 2.849.26.362-3.984-2.848-.259-.363 3.984Zm-1.607.017a8 8 0 0 1 1.607-.016l.363-3.984a12 12 0 0 0-2.412.024l.442 3.976Zm-1.956.217 1.956-.217-.442-3.976-1.956.218.442 3.975Zm-2.366.64a8 8 0 0 1 2.366-.64l-.442-3.975a12 12 0 0 0-3.548.96l1.624 3.656Zm-1.812.806 1.812-.805L9.092-.748 7.28.057l1.624 3.655ZM19.821 60.45a4.5 4.5 0 0 1-4.5 4.5v4a8.5 8.5 0 0 0 8.5-8.5h-4Zm-4.5-4.5a4.5 4.5 0 0 1 4.5 4.5h4a8.5 8.5 0 0 0-8.5-8.5v4Zm-4.5 4.5a4.5 4.5 0 0 1 4.5-4.5v-4a8.5 8.5 0 0 0-8.5 8.5h4Zm4.5 4.5a4.5 4.5 0 0 1-4.5-4.5h-4a8.5 8.5 0 0 0 8.5 8.5v-4Z" mask="url(#b)"/>
  <defs>
    <linearGradient id="a" x1="15.91" x2="15.91" y1="0" y2="66.95" gradientUnits="userSpaceOnUse">
      <stop stop-color="#0AF"/>
      <stop offset="1" stop-color="#132026"/>
    </linearGradient>
  </defs>
</svg>
