<svg xmlns="http://www.w3.org/2000/svg" width="45" height="55" fill="none" viewBox="0 0 45 36">
  <path fill="url(#a)" fill-rule="evenodd" d="M32.738 1a5.258 5.258 0 0 0-4.542 7.907l.612 1.05A7.15 7.15 0 0 1 29.76 13H14.375l1.535-6.142a3 3 0 0 0 .09-.727v-.67a3 3 0 0 0-.559-1.743l-1.044-1.462A3 3 0 0 0 11.957 1H9.38a3 3 0 0 0-2.278 1.048l-1.38 1.61A3 3 0 0 0 5 5.61v.38a3 3 0 0 0 .168.991l2.283 6.52a6.418 6.418 0 0 0 .526 12.022L4.5 29l-2.086 2.086c-1.26 1.26-.367 3.414 1.414 3.414H9.13a2 2 0 0 0 1.865-1.278L12 30.625l1.814-4.889 2.683-.065a5 5 0 1 0 4.793-.117l2.21-.054h8.318a5 5 0 1 0 4.364 0h4.43c.257 0 .512-.041.755-.122l.233-.078a1.897 1.897 0 0 0 1.2-2.4l-2.015-6.044a10 10 0 0 1-.377-4.806l.343-2.055a5.818 5.818 0 0 1 1.196-2.678l.307-.384c.487-.61.792-1.345.878-2.12l.223-2.004A1.629 1.629 0 0 0 41.735 1h-8.997Z" clip-rule="evenodd"/>
  <path fill="#2B6192" d="m28.43 3.243-.82-.574.82.574Zm-.234 5.664-.864.504.864-.504Zm.612 1.05-.864.503.864-.504ZM29.76 13v1h1.082l-.085-1.078-.997.078Zm-15.385 0-.97-.242-.31 1.242h1.28v-1Zm1.535-6.142.97.243-.97-.243Zm-.469-3.14.814-.582-.814.582Zm-1.044-1.462.814-.58-.814.58ZM11.957 1V0v1ZM9.38 1v1-1ZM7.102 2.048l.76.65-.76-.65Zm-1.38 1.61-.759-.651.76.65ZM5.168 6.98l-.943.33.943-.33Zm2.283 6.52.388.922.866-.365-.31-.887-.944.33Zm-3.907 5.421.997.077-.997-.076Zm4.433 6.602.707.707 1.158-1.159-1.56-.5-.305.952ZM4.5 29l-.707-.707L4.5 29Zm-2.086 2.086.707.707-.707-.707Zm8.58 2.136.933.361-.932-.361ZM12 30.625l.933.361.005-.013-.938-.348Zm1.814-4.889-.024-1-.677.017-.236.635.937.348Zm2.683-.065.501.865-.526-1.865.025 1Zm4.793-.117-.025-1-.434 1.889.459-.89Zm2.21-.054v-1h-.024l.024 1Zm8.318 0 .437.9-.437-1.9v1Zm4.364 0v-1l-.437 1.9.437-.9Zm4.43 0v1-1Zm.755-.122.317.948-.316-.948Zm.233-.078-.316-.949.316.949Zm1.2-1.2.949.316-.949-.316Zm0-1.2-.949.316.949-.316Zm-2.015-6.044.95-.316-.95.316Zm-.377-4.806.987.164-.987-.164Zm.343-2.055-.986-.165.986.165Zm1.196-2.678-.781-.625.78.625Zm.307-.384.78.625-.78-.625Zm.878-2.12.994.11-.994-.11Zm.223-2.004-.994-.11.994.11ZM42.25 1.084l.316-.95-.316.95ZM29.249 3.816A4.258 4.258 0 0 1 32.738 2V0a6.258 6.258 0 0 0-5.127 2.67l1.638 1.146Zm-.19 4.587a4.258 4.258 0 0 1 .19-4.587L27.611 2.67c-1.4 2-1.51 4.633-.279 6.742l1.728-1.008Zm.613 1.05-.612-1.05-1.728 1.008.612 1.05 1.728-1.009Zm1.085 3.469a8.156 8.156 0 0 0-1.085-3.47l-1.728 1.008c.47.804.747 1.7.82 2.618l1.993-.156ZM20.5 14h9.26v-2H20.5v2Zm-6.125 0H20.5v-2h-6.125v2Zm.565-7.384-1.535 6.142 1.94.485L16.881 7.1l-1.94-.485ZM15 6.13c0 .163-.02.326-.06.485l1.94.485a4 4 0 0 0 .12-.97h-2Zm0-.67v.67h2v-.67h-2Zm-.373-1.16A2 2 0 0 1 15 5.46h2a4 4 0 0 0-.745-2.325L14.628 4.3Zm-1.043-1.461 1.043 1.46 1.628-1.162-1.044-1.46-1.627 1.162ZM11.956 2a2 2 0 0 1 1.628.838l1.627-1.163A4 4 0 0 0 11.956 0v2ZM9.38 2h2.576V0H9.38v2Zm-1.519.698A2 2 0 0 1 9.38 2V0a4 4 0 0 0-3.037 1.397L7.86 2.698Zm-1.38 1.61 1.38-1.61-1.518-1.301-1.38 1.61 1.518 1.301ZM6 5.61a2 2 0 0 1 .481-1.302L4.963 3.007A4 4 0 0 0 4 5.61h2Zm0 .38v-.38H4v.38h2Zm.112.66A2 2 0 0 1 6 5.99H4a4 4 0 0 0 .225 1.322l1.887-.661Zm2.282 6.521-2.282-6.52-1.887.66 2.282 6.52 1.887-.66ZM4.541 19a5.415 5.415 0 0 1 3.298-4.576l-.777-1.843a7.415 7.415 0 0 0-4.515 6.266L4.541 19Zm3.741 5.573A5.418 5.418 0 0 1 4.542 19l-1.995-.153c-.27 3.525 1.958 6.613 5.124 7.63l.611-1.904Zm-3.075 5.135 3.477-3.476-1.415-1.415-3.476 3.477 1.414 1.414Zm-2.086 2.086 2.086-2.086-1.414-1.414-2.086 2.086 1.414 1.414Zm.707 1.707c-.89 0-1.337-1.077-.707-1.707L1.707 30.38c-1.89 1.89-.551 5.121 2.121 5.121v-2ZM6 33.5H3.828v2H6v-2Zm3.13 0H6v2h3.13v-2Zm.932-.639a1 1 0 0 1-.932.639v2a3 3 0 0 0 2.797-1.917l-1.865-.722Zm1.005-2.597-1.005 2.597 1.865.722 1.006-2.597-1.866-.722Zm1.81-4.876-1.815 4.89 1.876.695 1.814-4.889-1.875-.696Zm3.595-.717-2.682.066.049 1.999 2.682-.066-.049-1.999ZM15 30c0-1.478.801-2.77 1.998-3.464l-1.003-1.73A5.998 5.998 0 0 0 13 30h2Zm4 4a4 4 0 0 1-4-4h-2a6 6 0 0 0 6 6v-2Zm4-4a4 4 0 0 1-4 4v2a6 6 0 0 0 6-6h-2Zm-2.169-3.557A4 4 0 0 1 23 30h2a6 6 0 0 0-3.252-5.335l-.917 1.778Zm2.645-1.943-2.21.054.048 2 2.21-.054-.048-2Zm8.342 0H23.5v2h8.318v-2ZM30 30a4 4 0 0 1 2.255-3.6l-.874-1.8A6 6 0 0 0 28 30h2Zm4 4a4 4 0 0 1-4-4h-2a6 6 0 0 0 6 6v-2Zm4-4a4 4 0 0 1-4 4v2a6 6 0 0 0 6-6h-2Zm-2.255-3.6A4 4 0 0 1 38 30h2a6 6 0 0 0-3.381-5.4l-.874 1.8Zm4.868-1.9h-4.43v2h4.43v-2Zm.438-.071a1.39 1.39 0 0 1-.438.071v2c.364 0 .725-.059 1.07-.174l-.632-1.897Zm.233-.078-.233.078.633 1.897.232-.077-.632-1.898Zm.567-.567a.897.897 0 0 1-.567.567l.632 1.898a2.897 2.897 0 0 0 1.833-1.833l-1.898-.632Zm0-.568a.898.898 0 0 1 0 .568l1.898.632a2.898 2.898 0 0 0 0-1.832l-1.898.632Zm-2.014-6.044 2.014 6.044 1.898-.632-2.015-6.044-1.897.633Zm-.415-5.286a11 11 0 0 0 .415 5.287l1.897-.633a9 9 0 0 1-.34-4.326l-1.972-.328Zm.343-2.056-.343 2.056 1.973.328.342-2.055-1.973-.329Zm1.4-3.138a6.818 6.818 0 0 0-1.4 3.138l1.972.33a4.819 4.819 0 0 1 .99-2.219l-1.561-1.25Zm.308-.384-.307.384 1.562 1.25.307-.384-1.562-1.25Zm.665-1.606a3.122 3.122 0 0 1-.665 1.606l1.562 1.25a5.123 5.123 0 0 0 1.09-2.635l-1.987-.22Zm.223-2.004-.223 2.004 1.988.221.223-2.004-1.988-.22Zm-.426-.666a.629.629 0 0 1 .426.666l1.988.221A2.629 2.629 0 0 0 42.567.135l-.633 1.897Zm-.2-.032a.62.62 0 0 1 .2.032l.632-1.897A2.63 2.63 0 0 0 41.736 0v2Zm-8.997 0h8.998V0h-8.998v2Z"/>
  <defs>
    <radialGradient id="a" cx="0" cy="0" r="1" gradientTransform="matrix(20.49983 26.00018 -31.76613 25.046 22.5 18)" gradientUnits="userSpaceOnUse">
      <stop offset=".327" stop-color="#132026"/>
      <stop offset="1" stop-color="#03ABFF"/>
    </radialGradient>
  </defs>
</svg>
